<svg t="1740236043533" class="icon" viewBox="0 0 1024 1024" version="1.1" xmlns="http://www.w3.org/2000/svg" p-id="6177" width="200" height="200"><path d="M279.21 546.048c0 50.176 36.822 91.136 81.92 91.136 45.526 0 81.92-40.96 81.92-91.136 0.897-50.176-36.394-91.136-81.92-91.136-46.037 0-81.92 40.96-81.92 91.136z m302.337 0c0 50.176 36.864 91.136 81.962 91.136 46.038 0 81.92-40.96 81.92-91.136 0.939-50.176-36.352-91.136-81.92-91.136-46.037 0-81.92 40.96-81.92 91.136z" p-id="6178" fill="currentColor"></path><path d="M407.467 154.027a26.667 26.667 0 0 0-27.734-13.483 767.147 767.147 0 0 0-194.986 60.075 26.667 26.667 0 0 0-10.923 9.258C50.901 391.168 17.365 569.088 34.005 744.107c0.726 7.637 4.694 14.549 10.88 19.072A793.856 793.856 0 0 0 283.35 882.603a26.667 26.667 0 0 0 29.227-9.643c19.285-26.027 36.693-53.973 51.627-83.37a26.71 26.71 0 0 0 2.005-5.334 561.493 561.493 0 0 0 291.37 0.213 26.539 26.539 0 0 0 1.963 5.12c14.934 29.398 32.299 57.344 51.584 83.371a26.667 26.667 0 0 0 29.227 9.643 789.59 789.59 0 0 0 238.507-119.467 26.667 26.667 0 0 0 10.837-18.859c20.48-202.837-32.64-379.306-138.965-534.57a26.667 26.667 0 0 0-10.923-9.174 777.77 777.77 0 0 0-194.901-60.032 26.667 26.667 0 0 0-27.478 12.928c-5.717 9.856-11.733 21.76-17.066 33.11a744.917 744.917 0 0 0-176.214 0 676.779 676.779 0 0 0-16.64-32.555zM249.088 763.179c17.408 10.325 35.285 19.626 53.76 27.776-6.955 11.946-14.293 23.594-22.059 34.858a737.621 737.621 0 0 1-194.688-98.73c-12.8-157.739 18.432-317.142 127.702-481.11a713.941 713.941 0 0 1 155.861-49.408c5.12 10.027 10.112 20.608 13.867 29.44a26.667 26.667 0 0 0 28.458 16 692.864 692.864 0 0 1 200.832 0c11.947 1.707 23.595-4.821 28.331-15.957 3.84-9.13 8.747-19.67 13.696-29.525a725.333 725.333 0 0 1 156.075 49.493c94.976 141.141 142.506 299.435 126.848 481.067a733.013 733.013 0 0 1-194.774 98.73 535.296 535.296 0 0 1-22.016-34.858c18.475-8.192 36.31-17.451 53.76-27.734a26.667 26.667 0 0 0 1.878-44.672c-3.84-2.73-7.168-5.418-11.136-8.618l-6.742-5.376a26.667 26.667 0 0 0-27.69-3.243c-141.014 65.28-295.382 65.323-438.4 0a26.667 26.667 0 0 0-28.331 3.84 267.52 267.52 0 0 1-17.152 13.397 26.667 26.667 0 0 0 1.92 44.63z" p-id="6179" fill="currentColor"></path></svg>