<?xml version="1.0" encoding="UTF-8"?>
<!DOCTYPE svg PUBLIC "-//W3C//DTD SVG 1.1//EN" "http://www.w3.org/Graphics/SVG/1.1/DTD/svg11.dtd">
<svg xmlns="http://www.w3.org/2000/svg" preserveAspectRatio="xMidYMid meet" version="1.1" width="55pt" height="55pt" viewBox="1100 50 50 1300" style="shape-rendering:geometricPrecision; text-rendering:geometricPrecision; image-rendering:optimizeQuality; fill-rule:evenodd; clip-rule:evenodd" xmlns:xlink="http://www.w3.org/1999/xlink">
<g><path style="opacity:1" fill="#14532d" d="M 1019.5,270.5 C 1019.82,272.048 1020.82,272.715 1022.5,272.5C 1059.17,293.5 1095.83,314.5 1132.5,335.5C 1132.82,337.048 1133.82,337.715 1135.5,337.5C 1193.5,370.833 1251.5,404.167 1309.5,437.5C 1309.82,439.048 1310.82,439.715 1312.5,439.5C 1349.03,460.262 1385.37,481.262 1421.5,502.5C 1420.17,504.167 1418.83,505.833 1417.5,507.5C 1360.51,539.327 1303.84,571.661 1247.5,604.5C 1165.13,556.649 1082.47,509.316 999.5,462.5C 998.994,460.895 998.327,460.561 997.5,461.5C 996.29,461.932 995.29,462.599 994.5,463.5C 912.671,509.914 831.004,556.58 749.5,603.5C 690.837,570.84 632.837,537.173 575.5,502.5C 716.461,421.23 857.461,339.897 998.5,258.5C 1005.52,262.528 1012.52,266.528 1019.5,270.5 Z"/></g>
<g><path style="opacity:1" fill="#7a9c84" d="M 1019.5,270.5 C 1020.71,270.932 1021.71,271.599 1022.5,272.5C 1020.82,272.715 1019.82,272.048 1019.5,270.5 Z"/></g>
<g><path style="opacity:1" fill="#7a9b84" d="M 1132.5,335.5 C 1133.71,335.932 1134.71,336.599 1135.5,337.5C 1133.82,337.715 1132.82,337.048 1132.5,335.5 Z"/></g>
<g><path style="opacity:1" fill="#7a9b84" d="M 1309.5,437.5 C 1310.71,437.932 1311.71,438.599 1312.5,439.5C 1310.82,439.715 1309.82,439.048 1309.5,437.5 Z"/></g>
<g><path style="opacity:1" fill="#48a269" d="M 999.5,462.5 C 999.833,534.335 999.499,606.002 998.5,677.5C 998.832,626.997 998.499,576.664 997.5,526.5C 997.5,520.5 997.5,514.5 997.5,508.5C 997.5,492.833 997.5,477.167 997.5,461.5C 998.327,460.561 998.994,460.895 999.5,462.5 Z"/></g>
<g><path style="opacity:1" fill="#49dc7f" d="M 994.5,463.5 C 996.161,478.305 997.161,493.305 997.5,508.5C 997.5,514.5 997.5,520.5 997.5,526.5C 997.833,600.503 997.5,674.503 996.5,748.5C 995.478,748.855 994.811,749.522 994.5,750.5C 912.67,797.247 831.003,844.247 749.5,891.5C 749.5,795.5 749.5,699.5 749.5,603.5C 831.004,556.58 912.671,509.914 994.5,463.5 Z"/></g>
<g><path style="opacity:1" fill="#157f3d" d="M 999.5,462.5 C 1082.47,509.316 1165.13,556.649 1247.5,604.5C 1247.5,700.833 1247.5,797.167 1247.5,893.5C 1246.5,893.5 1245.5,893.5 1244.5,893.5C 1168.25,849.037 1091.92,804.537 1015.5,760C 1009.39,756.279 1003.06,753.113 996.5,750.5C 998.475,726.395 999.142,702.062 998.5,677.5C 999.499,606.002 999.833,534.335 999.5,462.5 Z"/></g>
<g><path style="opacity:1" fill="#69db92" d="M 997.5,461.5 C 997.5,477.167 997.5,492.833 997.5,508.5C 997.161,493.305 996.161,478.305 994.5,463.5C 995.29,462.599 996.29,461.932 997.5,461.5 Z"/></g>
<g><path style="opacity:1" fill="#d0e6e4" d="M 1421.5,502.5 C 1422.12,502.611 1422.62,502.944 1423,503.5C 1424.77,667.333 1424.6,831 1422.5,994.5C 1422.67,831.5 1422.5,668.5 1422,505.5C 1420.67,506.582 1419.17,507.249 1417.5,507.5C 1418.83,505.833 1420.17,504.167 1421.5,502.5 Z"/></g>
<g><path style="opacity:1" fill="#bddfcf" d="M 575.5,502.5 C 632.837,537.173 690.837,570.84 749.5,603.5C 749.5,699.5 749.5,795.5 749.5,891.5C 746.875,892.441 746.875,893.607 749.5,895C 830.167,941.333 910.833,987.667 991.5,1034C 993.65,1035.41 995.984,1036.24 998.5,1036.5C 998.5,1050.5 998.5,1064.5 998.5,1078.5C 997.502,1114.66 997.168,1151 997.5,1187.5C 997.833,1204.51 997.499,1221.51 996.5,1238.5C 856.33,1157.25 715.997,1076.25 575.5,995.5C 572.835,831.002 572.835,666.669 575.5,502.5 Z"/></g>
<g><path style="opacity:1" fill="#45a096" d="M 1422.5,994.5 C 1281.48,1075.76 1140.65,1157.43 1000,1239.5C 999.501,1233.51 999.334,1227.51 999.5,1221.5C 999.574,1173.83 999.241,1126.16 998.5,1078.5C 998.5,1064.5 998.5,1050.5 998.5,1036.5C 1081.02,989.632 1163.02,941.965 1244.5,893.5C 1245.5,893.5 1246.5,893.5 1247.5,893.5C 1247.5,797.167 1247.5,700.833 1247.5,604.5C 1303.84,571.661 1360.51,539.327 1417.5,507.5C 1419.17,507.249 1420.67,506.582 1422,505.5C 1422.5,668.5 1422.67,831.5 1422.5,994.5 Z"/></g>
<g><path style="opacity:1" fill="#69d08f" d="M 997.5,526.5 C 998.499,576.664 998.832,626.997 998.5,677.5C 999.142,702.062 998.475,726.395 996.5,750.5C 995.833,750.5 995.167,750.5 994.5,750.5C 994.811,749.522 995.478,748.855 996.5,748.5C 997.5,674.503 997.833,600.503 997.5,526.5 Z"/></g>
<g><path style="opacity:1" fill="#14532d" d="M 994.5,750.5 C 995.167,750.5 995.833,750.5 996.5,750.5C 1003.06,753.113 1009.39,756.279 1015.5,760C 1091.92,804.537 1168.25,849.037 1244.5,893.5C 1163.02,941.965 1081.02,989.632 998.5,1036.5C 995.984,1036.24 993.65,1035.41 991.5,1034C 910.833,987.667 830.167,941.333 749.5,895C 746.875,893.607 746.875,892.441 749.5,891.5C 831.003,844.247 912.67,797.247 994.5,750.5 Z"/></g>
<g><path style="opacity:1" fill="#d3e8e2" d="M 998.5,1078.5 C 999.241,1126.16 999.574,1173.83 999.5,1221.5C 998.833,1210.17 998.167,1198.83 997.5,1187.5C 997.168,1151 997.502,1114.66 998.5,1078.5 Z"/></g>
</svg>
